<?xml version="1.0" encoding="UTF-8"?>
<!DOCTYPE svg PUBLIC "-//W3C//DTD SVG 1.1//EN" "http://www.w3.org/Graphics/SVG/1.1/DTD/svg11.dtd">
<svg xmlns="http://www.w3.org/2000/svg" version="1.1" width="500px" height="500px" style="shape-rendering:geometricPrecision; text-rendering:geometricPrecision; image-rendering:optimizeQuality; fill-rule:evenodd; clip-rule:evenodd" xmlns:xlink="http://www.w3.org/1999/xlink">
<g><path style="opacity:1" fill="#1998d0" d="M 234.5,188.5 C 232.048,189.065 229.715,189.732 227.5,190.5C 223.199,190.818 219.532,192.485 216.5,195.5C 199.807,166.156 202.807,138.99 225.5,114C 250.39,97.7227 274.39,98.8894 297.5,117.5C 307.806,128.125 313.473,140.791 314.5,155.5C 308.158,155.666 301.825,155.5 295.5,155C 285.89,127.029 267.557,119.029 240.5,131C 228.43,141.875 223.93,155.375 227,171.5C 228.444,177.714 230.944,183.381 234.5,188.5 Z"/></g>
<g><path style="opacity:1" fill="#92c656" d="M 346.5,132.5 C 345.668,127.932 344.668,123.265 343.5,118.5C 342.914,118.291 342.414,117.957 342,117.5C 341.392,119.066 340.558,120.4 339.5,121.5C 339.062,117.092 341.062,115.425 345.5,116.5C 346.194,121.805 346.528,127.138 346.5,132.5 Z"/></g>
<g><path style="opacity:1" fill="#8ac34a" d="M 360.5,147.5 C 359.296,142.302 358.129,136.969 357,131.5C 356.282,130.549 355.449,130.383 354.5,131C 353.915,132.302 353.249,133.469 352.5,134.5C 352.079,131.343 353.245,129.01 356,127.5C 356.667,128.167 357.333,128.833 358,129.5C 359.594,135.399 360.428,141.399 360.5,147.5 Z"/></g>
<g><path style="opacity:1" fill="#8fc94d" d="M 339.5,121.5 C 339.666,127.842 339.5,134.175 339,140.5C 338.768,141.737 338.268,142.737 337.5,143.5C 337.626,135.972 338.293,128.639 339.5,121.5 Z"/></g>
<g><path style="opacity:1" fill="#81c33f" d="M 337.5,148.5 C 337.302,154.532 337.635,160.532 338.5,166.5C 338.333,167.5 338.167,168.5 338,169.5C 336.984,168.366 336.317,168.699 336,170.5C 334.474,169.455 333.641,167.955 333.5,166C 332.572,158.79 331.406,151.624 330,144.5C 328.644,143.62 327.144,143.286 325.5,143.5C 325.741,145.898 325.074,147.898 323.5,149.5C 323.523,147.073 324.023,144.74 325,142.5C 326.814,141.24 328.647,141.24 330.5,142.5C 332.272,150.129 333.939,157.796 335.5,165.5C 336.167,159.681 336.833,154.014 337.5,148.5 Z"/></g>
<g><path style="opacity:1" fill="#83c541" d="M 354.5,158.5 C 353.47,168.405 351.803,178.072 349.5,187.5C 348.079,170.417 346.413,170.417 344.5,187.5C 343.286,180.693 342.453,173.693 342,166.5C 341.829,173.679 341.329,180.679 340.5,187.5C 340.334,178.494 340.5,169.494 341,160.5C 341.414,160.043 341.914,159.709 342.5,159.5C 343.328,163.796 343.828,168.129 344,172.5C 346.381,171.565 348.881,171.232 351.5,171.5C 351.647,166.725 352.647,162.392 354.5,158.5 Z"/></g>
<g><path style="opacity:1" fill="#6cc01c" d="M 346.5,132.5 C 346.5,135.5 346.5,138.5 346.5,141.5C 346.334,147.509 346.501,153.509 347,159.5C 348,158.833 349,158.167 350,157.5C 350.499,153.848 350.665,150.182 350.5,146.5C 350.539,142.267 351.205,138.267 352.5,134.5C 353.249,133.469 353.915,132.302 354.5,131C 355.449,130.383 356.282,130.549 357,131.5C 358.129,136.969 359.296,142.302 360.5,147.5C 361.497,152.804 362.497,158.137 363.5,163.5C 372.841,164.267 382.175,165.1 391.5,166C 392.76,167.814 392.76,169.647 391.5,171.5C 380.862,172.421 370.196,172.254 359.5,171C 357.598,165.717 356.432,160.217 356,154.5C 355.209,155.745 354.709,157.078 354.5,158.5C 352.647,162.392 351.647,166.725 351.5,171.5C 348.881,171.232 346.381,171.565 344,172.5C 343.828,168.129 343.328,163.796 342.5,159.5C 341.914,159.709 341.414,160.043 341,160.5C 340.5,169.494 340.334,178.494 340.5,187.5C 340.784,189.415 340.451,191.081 339.5,192.5C 338.127,192.657 336.793,192.49 335.5,192C 335.011,189.791 334.011,187.958 332.5,186.5C 331.067,178.834 329.567,171.167 328,163.5C 327.054,165.788 325.887,167.955 324.5,170C 307.492,170.078 290.492,169.578 273.5,168.5C 271.291,168.604 269.124,168.937 267,169.5C 258.756,179.238 251.422,178.572 245,167.5C 243.336,155.499 248.503,150.666 260.5,153C 263.406,155.069 265.739,157.569 267.5,160.5C 282.63,162.233 297.963,162.9 313.5,162.5C 315.92,162.708 318.253,162.374 320.5,161.5C 321.505,157.466 322.505,153.466 323.5,149.5C 325.074,147.898 325.741,145.898 325.5,143.5C 327.144,143.286 328.644,143.62 330,144.5C 331.406,151.624 332.572,158.79 333.5,166C 333.641,167.955 334.474,169.455 336,170.5C 336.317,168.699 336.984,168.366 338,169.5C 338.167,168.5 338.333,167.5 338.5,166.5C 337.635,160.532 337.302,154.532 337.5,148.5C 337.5,146.833 337.5,145.167 337.5,143.5C 338.268,142.737 338.768,141.737 339,140.5C 339.5,134.175 339.666,127.842 339.5,121.5C 340.558,120.4 341.392,119.066 342,117.5C 342.414,117.957 342.914,118.291 343.5,118.5C 344.668,123.265 345.668,127.932 346.5,132.5 Z"/></g>
<g><path style="opacity:0.82" fill="#9acb67" d="M 267.5,160.5 C 283.003,160.878 298.336,161.545 313.5,162.5C 297.963,162.9 282.63,162.233 267.5,160.5 Z"/></g>
<g><path style="opacity:1" fill="#83c548" d="M 346.5,141.5 C 347.326,145.982 347.826,150.649 348,155.5C 348.973,152.421 349.806,149.421 350.5,146.5C 350.665,150.182 350.499,153.848 350,157.5C 349,158.167 348,158.833 347,159.5C 346.501,153.509 346.334,147.509 346.5,141.5 Z"/></g>
<g><path style="opacity:1" fill="#68c014" d="M 349.5,187.5 C 347.833,188.833 346.167,188.833 344.5,187.5C 346.413,170.417 348.079,170.417 349.5,187.5 Z"/></g>
<g><path style="opacity:1" fill="#1a97cf" d="M 270.5,247.5 C 268.11,250.566 266.11,253.9 264.5,257.5C 263.486,258.674 262.153,259.34 260.5,259.5C 258.582,254.657 255.916,250.323 252.5,246.5C 251.2,243.568 249.2,241.234 246.5,239.5C 250.198,233.48 253.865,227.48 257.5,221.5C 258.97,223.151 260.303,224.985 261.5,227C 262.449,227.617 263.282,227.451 264,226.5C 271.753,214.66 279.753,202.993 288,191.5C 290.167,187.167 292.333,182.833 294.5,178.5C 300.798,177.504 307.132,177.17 313.5,177.5C 312.834,184.331 310.667,190.664 307,196.5C 295.358,213.959 283.191,230.959 270.5,247.5 Z"/></g>
<g><path style="opacity:1" fill="#93c65c" d="M 332.5,186.5 C 334.011,187.958 335.011,189.791 335.5,192C 336.793,192.49 338.127,192.657 339.5,192.5C 338.686,194.273 337.352,194.773 335.5,194C 333.623,191.874 332.623,189.374 332.5,186.5 Z"/></g>
<g><path style="opacity:1" fill="#e04a47" d="M 234.5,188.5 C 237.067,188.721 239.401,189.388 241.5,190.5C 236.833,190.5 232.167,190.5 227.5,190.5C 229.715,189.732 232.048,189.065 234.5,188.5 Z"/></g>
<g><path style="opacity:1" fill="#f71918" d="M 227.5,190.5 C 232.167,190.5 236.833,190.5 241.5,190.5C 256.116,196.065 261.449,206.398 257.5,221.5C 253.865,227.48 250.198,233.48 246.5,239.5C 244.588,241.657 242.921,243.991 241.5,246.5C 239,249.494 237,252.827 235.5,256.5C 234.542,256.953 233.708,257.619 233,258.5C 232.329,257.748 231.496,257.414 230.5,257.5C 217.709,247.882 205.042,238.048 192.5,228C 200.387,217.048 208.387,206.215 216.5,195.5C 219.532,192.485 223.199,190.818 227.5,190.5 Z"/></g>
<g><path style="opacity:1" fill="#e9453c" d="M 197.5,238.5 C 194.966,237.542 192.633,236.208 190.5,234.5C 189.482,235.193 188.482,235.859 187.5,236.5C 188.048,234.606 189.048,232.94 190.5,231.5C 193.236,233.569 195.569,235.903 197.5,238.5 Z"/></g>
<g><path style="opacity:1" fill="#f71918" d="M 197.5,238.5 C 208.097,245.757 218.43,253.423 228.5,261.5C 228.657,262.873 228.49,264.207 228,265.5C 226.198,266.789 225.031,268.456 224.5,270.5C 223.5,271.833 222.5,273.167 221.5,274.5C 217.147,279.527 213.147,284.86 209.5,290.5C 208.167,293.167 206.167,295.167 203.5,296.5C 199.771,295.479 196.104,295.479 192.5,296.5C 187.241,294.85 182.241,295.183 177.5,297.5C 163.292,289.014 160.126,277.348 168,262.5C 174.277,253.586 180.777,244.92 187.5,236.5C 188.482,235.859 189.482,235.193 190.5,234.5C 192.633,236.208 194.966,237.542 197.5,238.5 Z"/></g>
<g><path style="opacity:0.996" fill="#b0abad" d="M 241.5,246.5 C 241.369,247.239 241.536,247.906 242,248.5C 245.603,247.865 249.103,247.198 252.5,246.5C 255.916,250.323 258.582,254.657 260.5,259.5C 251.259,264.121 241.925,268.787 232.5,273.5C 230.082,272.543 227.916,271.209 226,269.5C 225.617,270.056 225.117,270.389 224.5,270.5C 225.031,268.456 226.198,266.789 228,265.5C 228.49,264.207 228.657,262.873 228.5,261.5C 230.027,261.573 231.027,260.906 231.5,259.5C 233.973,259.912 235.306,258.912 235.5,256.5C 237,252.827 239,249.494 241.5,246.5 Z"/></g>
<g><path style="opacity:0.825" fill="#acafb4" d="M 270.5,247.5 C 273.628,248.632 276.962,249.465 280.5,250C 275.537,253.315 270.204,255.815 264.5,257.5C 266.11,253.9 268.11,250.566 270.5,247.5 Z"/></g>
<g><path style="opacity:0.997" fill="#afaeb0" d="M 284.5,252.5 C 286.199,252.34 287.866,252.506 289.5,253C 295.972,255.264 302.139,258.097 308,261.5C 309.274,268.257 306.441,272.424 299.5,274C 279.465,279.555 259.465,279.722 239.5,274.5C 254.321,266.783 269.321,259.45 284.5,252.5 Z"/></g>
<g><path style="opacity:1" fill="#ce6f74" d="M 235.5,256.5 C 235.306,258.912 233.973,259.912 231.5,259.5C 231.167,258.833 230.833,258.167 230.5,257.5C 231.496,257.414 232.329,257.748 233,258.5C 233.708,257.619 234.542,256.953 235.5,256.5 Z"/></g>
<g><path style="opacity:0.999" fill="#adaaad" d="M 310.5,288.5 C 308.801,288.34 307.134,288.506 305.5,289C 302.189,294.468 298.523,299.635 294.5,304.5C 292.52,299.241 290.853,293.907 289.5,288.5C 285.5,288.5 281.5,288.5 277.5,288.5C 276.628,294.191 275.628,299.858 274.5,305.5C 269.5,305.5 264.5,305.5 259.5,305.5C 260.048,303.606 261.048,301.94 262.5,300.5C 256.502,295.592 249.835,294.425 242.5,297C 239.976,298.883 238.642,301.383 238.5,304.5C 237.5,304.5 236.5,304.5 235.5,304.5C 235.795,306.735 235.461,308.735 234.5,310.5C 235.654,301.149 231.487,296.149 222,295.5C 219.256,295.41 216.756,296.077 214.5,297.5C 212.576,295.305 210.909,292.972 209.5,290.5C 213.147,284.86 217.147,279.527 221.5,274.5C 221.62,275.586 222.287,276.253 223.5,276.5C 252.192,283.999 280.525,282.999 308.5,273.5C 309.775,277.325 309.775,281.158 308.5,285C 308.862,286.434 309.528,287.601 310.5,288.5 Z"/></g>
<g><path style="opacity:0.998" fill="#1a1a1a" d="M 137.5,282.5 C 145.767,282.866 147.433,286.366 142.5,293C 135.333,295.167 132.833,292.667 135,285.5C 135.698,284.309 136.531,283.309 137.5,282.5 Z"/></g>
<g><path style="opacity:1" fill="#181818" d="M 388.5,282.5 C 394,281.831 396.167,284.165 395,289.5C 392.675,293.51 389.341,294.51 385,292.5C 383.581,288.082 384.748,284.749 388.5,282.5 Z"/></g>
<g><path style="opacity:0.999" fill="#1f1f1f" d="M 332.5,284.5 C 342.29,285.487 342.956,288.32 334.5,293C 331.773,293.818 329.106,293.652 326.5,292.5C 328.509,289.804 330.509,287.137 332.5,284.5 Z"/></g>
<g><path style="opacity:0.999" fill="#121212" d="M 368.5,286.5 C 372.167,286.5 375.833,286.5 379.5,286.5C 377.679,297.938 375.346,309.272 372.5,320.5C 368.62,321.795 364.786,321.795 361,320.5C 354.465,323.655 349.465,321.989 346,315.5C 343.805,306.736 346.639,300.236 354.5,296C 358.444,295.01 362.111,295.51 365.5,297.5C 366.88,293.931 367.88,290.264 368.5,286.5 Z M 358.5,304.5 C 360.167,304.5 361.833,304.5 363.5,304.5C 363.663,306.857 363.497,309.19 363,311.5C 359.882,314.407 357.715,313.74 356.5,309.5C 357.456,307.925 358.123,306.258 358.5,304.5 Z"/></g>
<g><path style="opacity:1" fill="#141414" d="M 45.5,287.5 C 62.6502,286.144 69.8169,293.81 67,310.5C 60.7844,321.358 51.6177,324.858 39.5,321C 28.6465,312.082 27.9798,302.416 37.5,292C 40.0993,290.205 42.7659,288.705 45.5,287.5 Z M 47.5,297.5 C 55.4781,298.117 57.8115,302.117 54.5,309.5C 48.5828,314.31 44.5828,312.976 42.5,305.5C 43.3709,302.304 45.0375,299.637 47.5,297.5 Z"/></g>
<g><path style="opacity:1" fill="#0f0f0f" d="M 310.5,288.5 C 312.833,288.5 315.167,288.5 317.5,288.5C 315.341,299.47 313.341,310.47 311.5,321.5C 308.167,321.5 304.833,321.5 301.5,321.5C 302.15,316.463 302.65,311.463 303,306.5C 300.873,310.589 298.373,314.423 295.5,318C 292.854,318.497 290.187,318.664 287.5,318.5C 286.674,314.864 286.008,311.197 285.5,307.5C 284.404,303.711 283.737,303.711 283.5,307.5C 282.704,312.147 282.037,316.814 281.5,321.5C 278.167,321.5 274.833,321.5 271.5,321.5C 271.992,316.041 272.992,310.708 274.5,305.5C 275.628,299.858 276.628,294.191 277.5,288.5C 281.5,288.5 285.5,288.5 289.5,288.5C 290.853,293.907 292.52,299.241 294.5,304.5C 298.523,299.635 302.189,294.468 305.5,289C 307.134,288.506 308.801,288.34 310.5,288.5 Z"/></g>
<g><path style="opacity:1" fill="#131313" d="M 72.5,295.5 C 79.9252,295.902 87.2585,296.069 94.5,296C 102.187,304.692 101.521,313.026 92.5,321C 87.9514,323.317 83.7847,322.817 80,319.5C 78.3783,322.987 77.545,326.654 77.5,330.5C 73.8333,330.5 70.1667,330.5 66.5,330.5C 68.6581,318.866 70.6581,307.199 72.5,295.5 Z M 84.5,303.5 C 88.8899,304.279 90.0565,306.613 88,310.5C 84.8405,313.501 82.6738,313.001 81.5,309C 81.6132,306.601 82.6132,304.768 84.5,303.5 Z"/></g>
<g><path style="opacity:1" fill="#161616" d="M 110.5,295.5 C 117.016,294.237 122.516,295.904 127,300.5C 127.483,301.448 127.649,302.448 127.5,303.5C 124.523,304.071 121.69,305.071 119,306.5C 116.916,303.967 114.916,303.967 113,306.5C 112.031,309.328 112.697,311.662 115,313.5C 116.314,312.687 117.481,311.687 118.5,310.5C 121.079,311.706 123.579,313.039 126,314.5C 126.163,316.387 125.329,317.887 123.5,319C 116.262,323.982 109.429,323.482 103,317.5C 98.8293,307.821 101.329,300.488 110.5,295.5 Z"/></g>
<g><path style="opacity:0.808" fill="#4a4a4a" d="M 142.5,299.5 C 142.5,298.5 142.5,297.5 142.5,296.5C 139.061,296.253 135.728,296.586 132.5,297.5C 135.684,295.586 139.351,294.92 143.5,295.5C 143.768,297.099 143.434,298.432 142.5,299.5 Z"/></g>
<g><path style="opacity:0.999" fill="#131313" d="M 154.5,295.5 C 171.16,293.978 176.66,300.978 171,316.5C 165.025,321.829 158.191,323.329 150.5,321C 141.63,313.804 141.297,306.137 149.5,298C 151.315,297.243 152.981,296.41 154.5,295.5 Z M 158.5,303.5 C 162.422,305.101 163.255,307.768 161,311.5C 157.775,314.313 155.942,313.48 155.5,309C 155.613,306.601 156.613,304.768 158.5,303.5 Z"/></g>
<g><path style="opacity:1" fill="#560d12" d="M 192.5,296.5 C 192.189,297.478 191.522,298.145 190.5,298.5C 186.427,295.86 182.427,295.86 178.5,298.5C 177.833,298.5 177.5,298.167 177.5,297.5C 182.241,295.183 187.241,294.85 192.5,296.5 Z"/></g>
<g><path style="opacity:1" fill="#111111" d="M 234.5,310.5 C 228.794,310.171 223.128,310.505 217.5,311.5C 217.624,312.107 217.957,312.44 218.5,312.5C 221.675,313.276 225.008,313.443 228.5,313C 234.1,316.457 233.767,319.123 227.5,321C 221.309,322.897 215.476,322.064 210,318.5C 206.591,313.863 205.924,308.863 208,303.5C 209.406,300.591 211.572,298.591 214.5,297.5C 216.756,296.077 219.256,295.41 222,295.5C 231.487,296.149 235.654,301.149 234.5,310.5 Z M 220.5,302.5 C 222.346,302.222 223.68,302.889 224.5,304.5C 222.579,305.641 220.579,305.808 218.5,305C 219.381,304.292 220.047,303.458 220.5,302.5 Z"/></g>
<g><path style="opacity:1" fill="#131313" d="M 259.5,305.5 C 258.833,305.5 258.167,305.5 257.5,305.5C 255.034,302.969 252.034,302.136 248.5,303C 250.364,304.431 252.364,305.597 254.5,306.5C 259.369,307.562 261.202,310.562 260,315.5C 257.924,320.229 254.257,322.562 249,322.5C 243.419,322.496 238.586,320.663 234.5,317C 236,314.833 237.5,312.667 239,310.5C 241.912,313.544 245.412,314.711 249.5,314C 246.869,312.673 244.202,311.34 241.5,310C 239.393,308.736 238.393,306.903 238.5,304.5C 238.642,301.383 239.976,298.883 242.5,297C 249.835,294.425 256.502,295.592 262.5,300.5C 261.048,301.94 260.048,303.606 259.5,305.5 Z"/></g>
<g><path style="opacity:1" fill="#141414" d="M 343.5,310.5 C 337.794,310.171 332.128,310.505 326.5,311.5C 326.624,312.107 326.957,312.44 327.5,312.5C 330.167,313.833 332.833,313.833 335.5,312.5C 335.833,312.5 336.167,312.5 336.5,312.5C 338.479,313.812 340.145,315.479 341.5,317.5C 340.636,319.197 339.303,320.363 337.5,321C 322.774,324.923 315.941,319.423 317,304.5C 322.689,295.116 330.522,292.95 340.5,298C 344.225,301.642 345.225,305.809 343.5,310.5 Z M 330.5,302.5 C 332.359,302.461 333.692,303.294 334.5,305C 332.5,305.667 330.5,305.667 328.5,305C 329.381,304.292 330.047,303.458 330.5,302.5 Z"/></g>
<g><path style="opacity:0.758" fill="#4b4b4b" d="M 392.5,300.5 C 392.5,299.167 392.5,297.833 392.5,296.5C 389.061,296.253 385.728,296.586 382.5,297.5C 385.684,295.586 389.351,294.92 393.5,295.5C 393.784,297.415 393.451,299.081 392.5,300.5 Z"/></g>
<g><path style="opacity:1" fill="#161616" d="M 403.5,295.5 C 411.051,293.863 417.051,296.03 421.5,302C 416.809,306.075 411.809,306.909 406.5,304.5C 404.699,307.952 405.199,310.952 408,313.5C 411.997,310.229 415.83,310.729 419.5,315C 416.163,320.76 411.163,323.093 404.5,322C 395.26,319.698 392.093,313.865 395,304.5C 396.688,300.315 399.521,297.315 403.5,295.5 Z"/></g>
<g><path style="opacity:1" fill="#121212" d="M 439.5,296.5 C 439.47,297.497 439.97,298.164 441,298.5C 444.276,296.773 447.776,296.106 451.5,296.5C 451.5,297.833 451.5,299.167 451.5,300.5C 450.551,307.243 449.218,313.91 447.5,320.5C 440.959,320.797 434.626,321.297 428.5,322C 423.27,320.065 420.603,316.232 420.5,310.5C 421.866,298.775 428.199,294.109 439.5,296.5 Z M 433.5,304.5 C 439.053,304.276 440.553,306.609 438,311.5C 435.048,314.442 432.881,313.942 431.5,310C 432.077,308.1 432.744,306.267 433.5,304.5 Z"/></g>
<g><path style="opacity:0.757" fill="#4b4b4b" d="M 451.5,300.5 C 451.5,299.167 451.5,297.833 451.5,296.5C 447.776,296.106 444.276,296.773 441,298.5C 439.97,298.164 439.47,297.497 439.5,296.5C 440.117,296.611 440.617,296.944 441,297.5C 444.494,295.623 448.327,294.956 452.5,295.5C 452.784,297.415 452.451,299.081 451.5,300.5 Z"/></g>
<g><path style="opacity:0.999" fill="#161616" d="M 461.5,295.5 C 467.072,294.99 472.405,295.823 477.5,298C 478.357,298.689 479.023,299.522 479.5,300.5C 478.162,302.337 476.662,304.003 475,305.5C 472.046,303.592 468.88,302.758 465.5,303C 469.342,304.614 472.842,306.781 476,309.5C 477.603,317.745 474.103,322.079 465.5,322.5C 459.853,322.577 455.187,320.577 451.5,316.5C 452.757,314.321 454.257,312.321 456,310.5C 458.994,313.276 462.494,314.442 466.5,314C 462.614,312.473 459.114,310.306 456,307.5C 454.486,301.877 456.319,297.877 461.5,295.5 Z"/></g>
<g><path style="opacity:0.999" fill="#111111" d="M 142.5,299.5 C 141.295,306.858 139.962,314.191 138.5,321.5C 134.833,321.5 131.167,321.5 127.5,321.5C 128.912,313.44 130.579,305.44 132.5,297.5C 135.728,296.586 139.061,296.253 142.5,296.5C 142.5,297.5 142.5,298.5 142.5,299.5 Z"/></g>
<g><path style="opacity:0.999" fill="#110f0f" d="M 203.5,296.5 C 204.743,298.997 205.41,301.664 205.5,304.5C 204.626,310.202 203.626,315.869 202.5,321.5C 198.833,321.5 195.167,321.5 191.5,321.5C 192.372,316.474 193.372,311.474 194.5,306.5C 191.598,303.738 189.431,304.405 188,308.5C 186.843,312.782 186.01,317.116 185.5,321.5C 181.833,321.5 178.167,321.5 174.5,321.5C 175.834,313.826 177.167,306.16 178.5,298.5C 182.427,295.86 186.427,295.86 190.5,298.5C 191.522,298.145 192.189,297.478 192.5,296.5C 196.104,295.479 199.771,295.479 203.5,296.5 Z"/></g>
<g><path style="opacity:0.999" fill="#111111" d="M 392.5,300.5 C 391.551,307.243 390.218,313.91 388.5,320.5C 384.878,321.659 381.211,321.825 377.5,321C 379.227,313.201 380.893,305.367 382.5,297.5C 385.728,296.586 389.061,296.253 392.5,296.5C 392.5,297.833 392.5,299.167 392.5,300.5 Z"/></g>
<g><path style="opacity:0.268" fill="#a1a1a1" d="M 257.5,305.5 C 256.209,305.263 255.209,305.596 254.5,306.5C 252.364,305.597 250.364,304.431 248.5,303C 252.034,302.136 255.034,302.969 257.5,305.5 Z"/></g>
<g><path style="opacity:0.169" fill="#bcbcbc" d="M 285.5,307.5 C 284.833,307.5 284.167,307.5 283.5,307.5C 283.737,303.711 284.404,303.711 285.5,307.5 Z"/></g>
<g><path style="opacity:0.121" fill="#a3a3a3" d="M 234.5,310.5 C 229.167,311.167 223.833,311.833 218.5,312.5C 217.957,312.44 217.624,312.107 217.5,311.5C 223.128,310.505 228.794,310.171 234.5,310.5 Z"/></g>
<g><path style="opacity:0.159" fill="#a1a1a1" d="M 343.5,310.5 C 341.167,311.167 338.833,311.833 336.5,312.5C 336.167,312.5 335.833,312.5 335.5,312.5C 332.833,311.167 330.167,311.167 327.5,312.5C 326.957,312.44 326.624,312.107 326.5,311.5C 332.128,310.505 337.794,310.171 343.5,310.5 Z"/></g>
<g><path style="opacity:1" fill="#66bf10" d="M -0.5,301.5 C 18.2046,318.684 38.2046,334.184 59.5,348C 101.45,371.469 145.784,389.136 192.5,401C 235.413,412.562 278.747,422.228 322.5,430C 355.604,435.74 388.604,441.24 421.5,446.5C 429.929,448.363 438.595,449.363 447.5,449.5C 448.167,449.5 448.833,449.5 449.5,449.5C 454.677,450.994 460.011,452.327 465.5,453.5C 467.207,453.272 468.874,452.938 470.5,452.5C 471.5,452.5 472.5,452.5 473.5,452.5C 474.694,453.777 476.36,454.444 478.5,454.5C 484.146,455.221 489.813,455.554 495.5,455.5C 496.833,455.5 498.167,455.5 499.5,455.5C 499.5,468.167 499.5,480.833 499.5,493.5C 494.167,493.167 488.833,492.833 483.5,492.5C 478.731,491.111 473.731,490.444 468.5,490.5C 465.833,490.5 463.167,490.5 460.5,490.5C 455.432,488.822 450.098,488.156 444.5,488.5C 442.833,488.5 441.167,488.5 439.5,488.5C 435.081,487.028 430.414,486.362 425.5,486.5C 417.792,486.193 410.125,485.526 402.5,484.5C 398.817,482.75 394.817,482.083 390.5,482.5C 387.794,482.425 385.127,482.092 382.5,481.5C 378.081,480.028 373.414,479.362 368.5,479.5C 363.731,478.111 358.731,477.444 353.5,477.5C 342.14,475.997 330.807,474.33 319.5,472.5C 317.095,471.232 314.428,470.565 311.5,470.5C 308.098,470.658 304.764,470.324 301.5,469.5C 298.155,467.783 294.489,467.116 290.5,467.5C 289.833,467.5 289.167,467.5 288.5,467.5C 283.752,465.862 278.752,464.862 273.5,464.5C 273.167,464.5 272.833,464.5 272.5,464.5C 270.485,463.076 268.152,462.41 265.5,462.5C 260.137,462.051 254.804,461.384 249.5,460.5C 240.018,457.856 230.352,455.523 220.5,453.5C 210.463,450.822 200.463,448.489 190.5,446.5C 188.562,444.837 186.228,444.171 183.5,444.5C 177.835,443.168 172.169,441.834 166.5,440.5C 164.898,438.926 162.898,438.259 160.5,438.5C 146.303,434.125 132.303,429.458 118.5,424.5C 117.07,423.463 115.403,422.796 113.5,422.5C 86.2134,413.009 60.5467,400.175 36.5,384C 24.1366,374.491 11.8033,364.991 -0.5,355.5C -0.5,337.5 -0.5,319.5 -0.5,301.5 Z"/></g>
<g><path style="opacity:0.999" fill="#151515" d="M 248.5,328.5 C 251.5,328.5 254.5,328.5 257.5,328.5C 255.576,337.785 253.91,347.118 252.5,356.5C 249.091,356.751 245.758,356.417 242.5,355.5C 237.498,358.11 233.665,356.776 231,351.5C 229.289,342.908 232.623,337.575 241,335.5C 242.895,335.615 244.562,336.282 246,337.5C 247.396,334.702 248.23,331.702 248.5,328.5 Z M 240.5,343.5 C 241.833,343.5 243.167,343.5 244.5,343.5C 245.093,346.596 244.093,348.929 241.5,350.5C 239.239,348.516 238.906,346.183 240.5,343.5 Z"/></g>
<g><path style="opacity:0.999" fill="#161616" d="M 306.5,343.5 C 309.059,343.198 311.393,343.532 313.5,344.5C 313.453,347.568 312.953,350.568 312,353.5C 304.308,359.129 296.975,358.796 290,352.5C 285.288,341.751 288.454,334.251 299.5,330C 304.561,328.911 309.228,329.744 313.5,332.5C 314.583,333.365 314.749,334.365 314,335.5C 312.333,337.167 310.667,338.833 309,340.5C 305.254,336.607 301.588,336.607 298,340.5C 295.817,347.134 297.984,349.801 304.5,348.5C 305.17,346.709 305.837,345.042 306.5,343.5 Z"/></g>
<g><path style="opacity:0.999" fill="#131313" d="M 278.5,347.5 C 273.786,347.173 269.12,347.507 264.5,348.5C 264.624,349.107 264.957,349.44 265.5,349.5C 267.451,350.641 269.451,350.641 271.5,349.5C 271.833,349.5 272.167,349.5 272.5,349.5C 277.509,351.941 277.509,354.108 272.5,356C 258.683,357.862 254.183,352.362 259,339.5C 265.658,333.976 271.991,334.309 278,340.5C 279.06,342.95 279.227,345.283 278.5,347.5 Z M 270.5,343.5 C 268.901,343.768 267.568,343.434 266.5,342.5C 268.375,340.922 269.708,341.255 270.5,343.5 Z"/></g>
<g><path style="opacity:0.999" fill="#191919" d="M 317.5,335.5 C 320.722,335.108 323.722,335.608 326.5,337C 324.705,341.06 324.372,345.227 325.5,349.5C 327.197,348.636 328.363,347.303 329,345.5C 329.794,342.529 330.461,339.529 331,336.5C 333.719,335.556 336.552,335.223 339.5,335.5C 338.63,342.518 337.63,349.518 336.5,356.5C 331.579,356.073 326.745,356.073 322,356.5C 317.675,356.511 315.175,354.345 314.5,350C 315.694,345.196 316.694,340.363 317.5,335.5 Z"/></g>
<g><path style="opacity:0.999" fill="#181818" d="M 348.5,335.5 C 358.405,334.423 363.071,338.756 362.5,348.5C 357.821,348.334 353.155,348.501 348.5,349C 349.609,349.638 350.775,350.138 352,350.5C 355.568,348.768 358.401,349.601 360.5,353C 359.449,354.385 358.116,355.385 356.5,356C 344.35,359.174 339.184,354.674 341,342.5C 342.767,339.228 345.267,336.895 348.5,335.5 Z M 351.5,341.5 C 354.99,343.336 354.323,343.836 349.5,343C 350.416,342.722 351.082,342.222 351.5,341.5 Z"/></g>
<g><path style="opacity:0.998" fill="#141414" d="M 378.5,336.5 C 380.256,337.552 380.923,339.219 380.5,341.5C 378.592,343.024 376.425,344.357 374,345.5C 372.846,349.104 372.013,352.771 371.5,356.5C 368.482,356.665 365.482,356.498 362.5,356C 363.658,350.209 364.825,344.376 366,338.5C 366.419,337.328 367.085,336.328 368,335.5C 369.796,336.767 371.629,336.767 373.5,335.5C 374.478,335.977 375.311,336.643 376,337.5C 376.671,336.748 377.504,336.414 378.5,336.5 Z"/></g>
<g><path style="opacity:0.998" fill="#1a1a1a" d="M 398.5,342.5 C 395.755,342.945 393.255,343.945 391,345.5C 390.229,348.859 389.395,352.192 388.5,355.5C 385.914,356.48 383.247,356.813 380.5,356.5C 381.344,349.787 382.511,343.12 384,336.5C 387.275,334.909 390.275,335.242 393,337.5C 394.584,336.139 396.418,335.472 398.5,335.5C 398.5,337.833 398.5,340.167 398.5,342.5 Z"/></g>
<g><path style="opacity:0.999" fill="#191919" d="M 398.5,342.5 C 403.485,335.056 409.818,333.723 417.5,338.5C 420.291,341.29 420.958,344.457 419.5,348C 415.167,348.333 410.833,348.667 406.5,349C 407.108,349.87 407.941,350.37 409,350.5C 412.825,348.665 415.659,349.665 417.5,353.5C 417.291,354.086 416.957,354.586 416.5,355C 412.289,356.534 407.956,356.867 403.5,356C 398.187,352.897 396.52,348.397 398.5,342.5 Z M 409.5,341.5 C 410.289,341.783 410.956,342.283 411.5,343C 410.167,343.667 408.833,343.667 407.5,343C 408.416,342.722 409.082,342.222 409.5,341.5 Z"/></g>
<g><path style="opacity:0.997" fill="#161616" d="M 438.5,343.5 C 435.843,343.162 433.51,343.829 431.5,345.5C 430.319,349.072 429.652,352.738 429.5,356.5C 426.5,356.5 423.5,356.5 420.5,356.5C 421.833,349.833 423.167,343.167 424.5,336.5C 427.777,336.216 430.943,336.549 434,337.5C 435.584,336.139 437.418,335.472 439.5,335.5C 438.908,338.127 438.575,340.794 438.5,343.5 Z"/></g>
<g><path style="opacity:0.999" fill="#151515" d="M 438.5,343.5 C 441.841,337.094 447.175,334.594 454.5,336C 461.187,338.581 463.354,343.414 461,350.5C 458.098,354.621 454.098,356.954 449,357.5C 440.911,356.336 437.411,351.669 438.5,343.5 Z M 449.5,342.5 C 450.496,342.414 451.329,342.748 452,343.5C 453.568,347.917 452.068,349.917 447.5,349.5C 447.185,346.789 447.852,344.456 449.5,342.5 Z"/></g>
<g><path style="opacity:0.678" fill="#5d5d5d" d="M 378.5,336.5 C 379.209,335.596 380.209,335.263 381.5,335.5C 381.795,337.735 381.461,339.735 380.5,341.5C 380.923,339.219 380.256,337.552 378.5,336.5 Z"/></g>
<g><path style="opacity:0.589" fill="#5d5d5d" d="M 306.5,343.5 C 309.024,342.2 311.691,342.2 314.5,343.5C 314.376,344.107 314.043,344.44 313.5,344.5C 311.393,343.532 309.059,343.198 306.5,343.5 Z"/></g>
<g><path style="opacity:0.255" fill="#8c8c8c" d="M 266.5,342.5 C 267.568,343.434 268.901,343.768 270.5,343.5C 268.965,344.788 267.299,344.788 265.5,343.5C 265.624,342.893 265.957,342.56 266.5,342.5 Z"/></g>
<g><path style="opacity:0.296" fill="#8e8e8e" d="M 278.5,347.5 C 276.5,348.167 274.5,348.833 272.5,349.5C 272.167,349.5 271.833,349.5 271.5,349.5C 269.5,348.167 267.5,348.167 265.5,349.5C 264.957,349.44 264.624,349.107 264.5,348.5C 269.12,347.507 273.786,347.173 278.5,347.5 Z"/></g>
<g><path style="opacity:1" fill="#0096d0" d="M -0.5,355.5 C 11.8033,364.991 24.1366,374.491 36.5,384C 60.5467,400.175 86.2134,413.009 113.5,422.5C 114.635,424.213 116.302,424.88 118.5,424.5C 132.303,429.458 146.303,434.125 160.5,438.5C 161.848,439.186 163.015,440.186 164,441.5C 164.671,440.748 165.504,440.414 166.5,440.5C 172.169,441.834 177.835,443.168 183.5,444.5C 185.515,445.924 187.848,446.59 190.5,446.5C 200.463,448.489 210.463,450.822 220.5,453.5C 220.423,454.75 219.756,455.583 218.5,456C 227.664,455.923 227.664,456.59 218.5,458C 219.772,459.046 221.272,459.546 223,459.5C 225.194,458.921 227.36,458.254 229.5,457.5C 236.183,458.506 242.85,459.506 249.5,460.5C 254.804,461.384 260.137,462.051 265.5,462.5C 267.515,463.924 269.848,464.59 272.5,464.5C 272.833,464.5 273.167,464.5 273.5,464.5C 278.205,466.322 283.205,467.322 288.5,467.5C 289.167,467.5 289.833,467.5 290.5,467.5C 293.946,468.687 297.613,469.354 301.5,469.5C 304.764,470.324 308.098,470.658 311.5,470.5C 313.838,472.04 316.505,472.706 319.5,472.5C 330.807,474.33 342.14,475.997 353.5,477.5C 358.25,479.031 363.25,479.698 368.5,479.5C 372.919,480.972 377.586,481.638 382.5,481.5C 385.127,482.092 387.794,482.425 390.5,482.5C 394.316,483.482 398.316,484.149 402.5,484.5C 410.125,485.526 417.792,486.193 425.5,486.5C 429.919,487.972 434.586,488.638 439.5,488.5C 441.167,488.5 442.833,488.5 444.5,488.5C 445.209,489.404 446.209,489.737 447.5,489.5C 454.944,491.072 462.611,492.072 470.5,492.5C 472.044,492.79 473.377,493.456 474.5,494.5C 475.086,494.291 475.586,493.957 476,493.5C 477.879,495.195 480.046,496.528 482.5,497.5C 488.125,496.592 493.792,496.258 499.5,496.5C 499.5,497.5 499.5,498.5 499.5,499.5C 332.833,499.5 166.167,499.5 -0.5,499.5C -0.5,451.5 -0.5,403.5 -0.5,355.5 Z"/></g>
<g><path style="opacity:1" fill="#3ba676" d="M 113.5,422.5 C 115.403,422.796 117.07,423.463 118.5,424.5C 116.302,424.88 114.635,424.213 113.5,422.5 Z"/></g>
<g><path style="opacity:1" fill="#2a9e9b" d="M 160.5,438.5 C 162.898,438.259 164.898,438.926 166.5,440.5C 165.504,440.414 164.671,440.748 164,441.5C 163.015,440.186 161.848,439.186 160.5,438.5 Z"/></g>
<g><path style="opacity:1" fill="#44b05f" d="M 183.5,444.5 C 186.228,444.171 188.562,444.837 190.5,446.5C 187.848,446.59 185.515,445.924 183.5,444.5 Z"/></g>
<g><path style="opacity:0.824" fill="#85c244" d="M 421.5,446.5 C 430.397,446.697 439.064,447.697 447.5,449.5C 438.595,449.363 429.929,448.363 421.5,446.5 Z"/></g>
<g><path style="opacity:1" fill="#86c447" d="M 449.5,449.5 C 456.692,450.105 463.692,451.105 470.5,452.5C 468.874,452.938 467.207,453.272 465.5,453.5C 460.011,452.327 454.677,450.994 449.5,449.5 Z"/></g>
<g><path style="opacity:0.702" fill="#8fc550" d="M 473.5,452.5 C 481.013,453.188 488.346,454.188 495.5,455.5C 489.813,455.554 484.146,455.221 478.5,454.5C 476.36,454.444 474.694,453.777 473.5,452.5 Z"/></g>
<g><path style="opacity:1" fill="#1199c0" d="M 220.5,453.5 C 230.352,455.523 240.018,457.856 249.5,460.5C 242.85,459.506 236.183,458.506 229.5,457.5C 227.36,458.254 225.194,458.921 223,459.5C 221.272,459.546 219.772,459.046 218.5,458C 227.664,456.59 227.664,455.923 218.5,456C 219.756,455.583 220.423,454.75 220.5,453.5 Z"/></g>
<g><path style="opacity:1" fill="#3fad67" d="M 265.5,462.5 C 268.152,462.41 270.485,463.076 272.5,464.5C 269.848,464.59 267.515,463.924 265.5,462.5 Z"/></g>
<g><path style="opacity:1" fill="#35a581" d="M 273.5,464.5 C 278.752,464.862 283.752,465.862 288.5,467.5C 283.205,467.322 278.205,466.322 273.5,464.5 Z"/></g>
<g><path style="opacity:1" fill="#44aa68" d="M 290.5,467.5 C 294.489,467.116 298.155,467.783 301.5,469.5C 297.613,469.354 293.946,468.687 290.5,467.5 Z"/></g>
<g><path style="opacity:1" fill="#32a37e" d="M 311.5,470.5 C 314.428,470.565 317.095,471.232 319.5,472.5C 316.505,472.706 313.838,472.04 311.5,470.5 Z"/></g>
<g><path style="opacity:1" fill="#38aa73" d="M 353.5,477.5 C 358.731,477.444 363.731,478.111 368.5,479.5C 363.25,479.698 358.25,479.031 353.5,477.5 Z"/></g>
<g><path style="opacity:1" fill="#3dab6a" d="M 368.5,479.5 C 373.414,479.362 378.081,480.028 382.5,481.5C 377.586,481.638 372.919,480.972 368.5,479.5 Z"/></g>
<g><path style="opacity:1" fill="#3caa72" d="M 390.5,482.5 C 394.817,482.083 398.817,482.75 402.5,484.5C 398.316,484.149 394.316,483.482 390.5,482.5 Z"/></g>
<g><path style="opacity:1" fill="#3fae6b" d="M 425.5,486.5 C 430.414,486.362 435.081,487.028 439.5,488.5C 434.586,488.638 429.919,487.972 425.5,486.5 Z"/></g>
<g><path style="opacity:1" fill="#3faf66" d="M 444.5,488.5 C 450.098,488.156 455.432,488.822 460.5,490.5C 456.176,490.073 451.842,489.739 447.5,489.5C 446.209,489.737 445.209,489.404 444.5,488.5 Z"/></g>
<g><path style="opacity:1" fill="#4cb34f" d="M 468.5,490.5 C 473.731,490.444 478.731,491.111 483.5,492.5C 478.269,492.556 473.269,491.889 468.5,490.5 Z"/></g>
<g><path style="opacity:1" fill="#1598c0" d="M 447.5,489.5 C 451.842,489.739 456.176,490.073 460.5,490.5C 463.167,490.5 465.833,490.5 468.5,490.5C 473.269,491.889 478.269,492.556 483.5,492.5C 488.833,492.833 494.167,493.167 499.5,493.5C 499.5,494.5 499.5,495.5 499.5,496.5C 493.792,496.258 488.125,496.592 482.5,497.5C 480.046,496.528 477.879,495.195 476,493.5C 475.586,493.957 475.086,494.291 474.5,494.5C 473.377,493.456 472.044,492.79 470.5,492.5C 462.611,492.072 454.944,491.072 447.5,489.5 Z"/></g>
</svg>
